<svg width="24" height="24" viewBox="0 0 24 24" fill="none" xmlns="http://www.w3.org/2000/svg">
<path opacity="0.2" d="M7.8 21H14.2C15.88 21 16.72 21 17.362 20.673C17.9265 20.3854 18.3854 19.9265 18.673 19.362C19 18.72 19 17.88 19 16.2V14L10 5H7.8C6.12 5 5.28 5 4.638 5.327C4.07354 5.61462 3.61462 6.07354 3.327 6.638C3 7.28 3 8.12 3 9.8V16.2C3 17.88 3 18.72 3.327 19.362C3.61462 19.9265 4.07354 20.3854 4.638 20.673C5.28 21 6.12 21 7.8 21Z" fill="white"/>
<path d="M21 9V3M21 3H15M21 3L13 11M10 5H7.8C6.12 5 5.28 5 4.638 5.327C4.07354 5.61462 3.61462 6.07354 3.327 6.638C3 7.28 3 8.12 3 9.8V16.2C3 17.88 3 18.72 3.327 19.362C3.61462 19.9265 4.07354 20.3854 4.638 20.673C5.28 21 6.12 21 7.8 21H14.2C15.88 21 16.72 21 17.362 20.673C17.9265 20.3854 18.3854 19.9265 18.673 19.362C19 18.72 19 17.88 19 16.2V14" stroke="white" stroke-width="1.5" stroke-linecap="round" stroke-linejoin="round"/>
</svg>
