<svg width="20" height="20" viewBox="0 0 20 20" fill="none" xmlns="http://www.w3.org/2000/svg">
<path d="M4.97847 8.82773V7.18158C4.97847 7.08414 4.97847 7.04517 5.10565 7.04517C6.1959 7.04517 7.08206 6.98055 7.52206 7.24004C7.96308 7.4985 7.98154 7.85542 7.98872 7.96209C7.99693 8.06876 7.99283 8.22158 7.7877 8.59388C7.58257 8.96619 6.66462 8.97337 6.00206 8.97337H5.12513C5.01744 8.97337 4.97847 8.9344 4.97847 8.82773ZM8 10.5529C8.10142 10.6826 8.17379 10.8326 8.21221 10.9927C8.25063 11.1528 8.25421 11.3193 8.2227 11.481C8.19119 11.6426 8.12533 11.7956 8.02958 11.9295C7.93383 12.0635 7.81042 12.1753 7.6677 12.2575C7.45779 12.3455 7.23275 12.3918 7.00513 12.3939H5.11488C5.01744 12.3939 4.97847 12.3939 4.97847 12.2677V10.319C4.97847 10.2216 4.97847 10.1826 5.10565 10.1826H6.36206C7.14154 10.1826 7.62872 10.1149 8 10.5529Z" fill="white"/>
<path d="M14.8605 9.65026C14.8083 9.52699 14.729 9.41707 14.6285 9.32864C14.528 9.24022 14.4089 9.17557 14.28 9.13949C14.0224 9.06924 13.7528 9.0544 13.489 9.09594C13.2253 9.13749 12.9733 9.23448 12.7497 9.38051C12.5268 9.60539 12.3828 9.89655 12.3395 10.2103C12.3395 10.32 12.3395 10.3405 12.4697 10.3405H14.9005C15.0205 10.3405 15.0205 10.3405 15.0103 10.1897C14.9986 10.0013 14.9482 9.81746 14.8605 9.65026ZM14.8605 9.65026C14.8083 9.52699 14.728 9.41707 14.6275 9.32864C14.527 9.24022 14.4089 9.17557 14.28 9.13949C14.0224 9.06924 13.7518 9.0544 13.488 9.09594C13.2242 9.13749 12.9733 9.23448 12.7497 9.38051C12.5268 9.60539 12.3818 9.89655 12.3385 10.2103C12.3385 10.32 12.3385 10.3405 12.4687 10.3405H14.9005C15.0205 10.3405 15.0205 10.3405 15.0103 10.1897C14.9986 10.0013 14.9461 9.81746 14.8585 9.65026M16 0H4C2.93913 0 1.92172 0.421427 1.17157 1.17157C0.421427 1.92172 0 2.93913 0 4V16C0 17.0609 0.421427 18.0783 1.17157 18.8284C1.92172 19.5786 2.93913 20 4 20H16C17.0609 20 18.0783 19.5786 18.8284 18.8284C19.5786 18.0783 20 17.0609 20 16V4C20 2.93913 19.5786 1.92172 18.8284 1.17157C18.0783 0.421427 17.0609 0 16 0ZM12.08 6.36923C12.08 6.29026 12.08 6.25949 12.1703 6.25949H15.4103V7.10051C15.4103 7.10051 15.4133 7.16 15.36 7.16H12.2205C12.08 7.16 12.08 7.16 12.08 7.02051V6.36923ZM9.08 13.72C7.84923 14.3897 5.78051 14.12 3.33026 14.12V5.82974H7.24C8.24 5.82974 9.42974 6.08 9.74974 7.13949C9.91591 7.60224 9.9058 8.10998 9.72133 8.56574C9.53687 9.0215 9.19099 9.39335 8.74974 9.61026C9.15646 9.76077 9.51155 10.0246 9.77298 10.3707C10.0344 10.7167 10.1912 11.1304 10.2249 11.5627C10.2586 11.9951 10.1677 12.4281 9.96295 12.8104C9.75823 13.1927 9.44827 13.5083 9.06974 13.72H9.08ZM16.5303 11.36H12.5303C12.4205 11.36 12.32 11.4195 12.3395 11.56C12.4595 12.1497 12.7292 12.7703 13.3405 12.8605C13.6633 12.956 14.0088 12.941 14.322 12.8178C14.6353 12.6946 14.8985 12.4703 15.0697 12.1805C15.0697 12.1805 15.12 12.12 15.1497 12.12H16.4503C16.4503 12.12 16.5303 12.12 16.5097 12.1897C16.3735 12.5785 16.1705 12.9406 15.9097 13.2595C15.5621 13.5913 15.1426 13.8386 14.684 13.9821C14.2253 14.1257 13.7397 14.1617 13.2649 14.0873C12.7901 14.0129 12.3388 13.8301 11.946 13.5532C11.5532 13.2762 11.2295 12.9125 11 12.4903C10.8581 12.2089 10.7701 11.9035 10.7405 11.5897C10.5621 10.8016 10.6985 9.97502 11.1205 9.28594C11.5425 8.59686 12.2169 8.09976 13 7.90051C15.2697 7.41026 16.7097 8.97026 16.7097 11.1703C16.7131 11.196 16.7105 11.2221 16.7022 11.2467C16.6938 11.2712 16.6799 11.2935 16.6616 11.3119C16.6433 11.3302 16.621 11.3441 16.5964 11.3524C16.5719 11.3608 16.5457 11.3634 16.52 11.36H16.5303ZM14.2903 9.13949C14.0327 9.06945 13.7632 9.05477 13.4995 9.09641C13.2359 9.13744 13 9.18769 12.76 9.38051C12.52 9.57231 12.3928 9.89641 12.3497 10.2103C12.3497 10.32 12.3497 10.3405 12.48 10.3405H14.9005C15.0205 10.3405 15.0205 10.3405 15.0103 10.1897C14.9986 10.0013 14.9482 9.81746 14.8605 9.65026C14.8083 9.52699 14.729 9.41707 14.6285 9.32864C14.528 9.24022 14.4089 9.17557 14.28 9.13949H14.2903Z" fill="white"/>
</svg>
