<svg width="20" height="20" viewBox="0 0 20 20" fill="none" xmlns="http://www.w3.org/2000/svg">
<g clip-path="url(#clip0_337_58)">
<path fill-rule="evenodd" clip-rule="evenodd" d="M16.8871 0.140106C17.3011 -0.0107365 17.7495 -0.0402796 18.1797 0.0549495C18.6099 0.150179 19.0039 0.366222 19.3155 0.677689C19.6271 0.989156 19.8434 1.3831 19.9388 1.81323C20.0343 2.24336 20.0049 2.69179 19.8543 3.10582L14.7486 18.4087C14.6244 18.7847 14.4057 19.1226 14.1136 19.39C13.8214 19.6574 13.4656 19.8453 13.08 19.9358C12.6954 20.0295 12.293 20.0216 11.9123 19.9129C11.5316 19.8042 11.1858 19.5985 10.9086 19.3158L8.16857 16.5887L5.29143 18.0773C5.18114 18.1344 5.05784 18.1619 4.93371 18.1569C4.80957 18.1518 4.6889 18.1145 4.58359 18.0486C4.47829 17.9827 4.392 17.8904 4.33325 17.7809C4.2745 17.6715 4.24531 17.5486 4.24857 17.4244L4.36714 12.8758L14.4314 5.56582C14.5264 5.49688 14.6068 5.40991 14.6681 5.30989C14.7294 5.20987 14.7704 5.09874 14.7888 4.98287C14.8072 4.867 14.8025 4.74864 14.7752 4.63455C14.7478 4.52047 14.6982 4.41289 14.6293 4.31796C14.5603 4.22304 14.4734 4.14262 14.3734 4.0813C14.2733 4.01998 14.1622 3.97897 14.0463 3.9606C13.9305 3.94222 13.8121 3.94685 13.698 3.97422C13.5839 4.00159 13.4764 4.05116 13.3814 4.12011L3.14714 11.5544L0.675714 9.08296C0.409361 8.81654 0.212992 8.48841 0.104076 8.12776C-0.00484041 7.76712 -0.0229258 7.38514 0.0514284 7.01582C0.126188 6.61205 0.307033 6.23545 0.575404 5.92465C0.843775 5.61385 1.19001 5.38005 1.57857 5.24725H1.58286L16.8857 0.138678L16.8871 0.140106Z" fill="white"/>
</g>
<defs>
<clipPath id="clip0_337_58">
<rect width="20" height="20" fill="white"/>
</clipPath>
</defs>
</svg>
