<svg width="20" height="20" viewBox="0 0 20 20" fill="none" xmlns="http://www.w3.org/2000/svg">
<path d="M10 0.246948C4.475 0.246948 1.64501e-06 4.72195 1.64501e-06 10.2469C-0.00120241 12.3461 0.6586 14.3923 1.88581 16.0954C3.11302 17.7985 4.84533 19.0718 6.837 19.7349C7.337 19.8219 7.525 19.5219 7.525 19.2589C7.525 19.0219 7.512 18.2349 7.512 17.3969C5 17.8599 4.35 16.7849 4.15 16.2219C4.037 15.9339 3.55 15.0469 3.125 14.8089C2.775 14.6219 2.275 14.1589 3.112 14.1469C3.9 14.1339 4.462 14.8719 4.65 15.1719C5.55 16.6839 6.987 16.2589 7.562 15.9969C7.65 15.3469 7.912 14.9099 8.2 14.6599C5.975 14.4099 3.65 13.5469 3.65 9.72195C3.65 8.63395 4.037 7.73495 4.675 7.03495C4.575 6.78495 4.225 5.75995 4.775 4.38495C4.775 4.38495 5.612 4.12195 7.525 5.40895C8.33911 5.18335 9.18021 5.06997 10.025 5.07195C10.875 5.07195 11.725 5.18395 12.525 5.40895C14.438 4.10895 15.275 4.38495 15.275 4.38495C15.825 5.75995 15.475 6.78495 15.375 7.03495C16.012 7.73495 16.4 8.62195 16.4 9.72195C16.4 13.5599 14.063 14.4099 11.838 14.6599C12.2 14.9719 12.513 15.5719 12.513 16.5099C12.513 17.8469 12.5 18.9219 12.5 19.2599C12.5 19.5219 12.688 19.8339 13.188 19.7339C15.1728 19.0636 16.8975 17.7877 18.1193 16.0859C19.3411 14.384 19.9985 12.3419 19.999 10.2469C19.999 4.72195 15.524 0.246948 9.999 0.246948" fill="white"/>
</svg>
